<?xml version="1.0" standalone="no"?>
<!DOCTYPE svg PUBLIC "-//W3C//DTD SVG 20010904//EN"
 "http://www.w3.org/TR/2001/REC-SVG-20010904/DTD/svg10.dtd">
<svg version="1.0" xmlns="http://www.w3.org/2000/svg"
 width="714.000000pt" height="405.000000pt" viewBox="0 0 714.000000 405.000000"
 preserveAspectRatio="xMidYMid meet">
<metadata>
Created by potrace 1.10, written by Peter Selinger 2001-2011
</metadata>
<g transform="translate(0.000000,405.000000) scale(0.100000,-0.100000)"
fill="#000000" stroke="none">
<path d="M3245 3840 c-162 -38 -245 -70 -340 -130 -16 -11 -40 -24 -52 -29
-18 -9 -132 -100 -171 -138 -14 -14 -27 -16 -85 -13 -21 1 -43 -3 -50 -8 -7
-5 -28 -12 -48 -16 -59 -10 -179 -123 -179 -168 0 -9 -5 -18 -12 -20 -24 -8
-39 -240 -17 -262 5 -6 9 -28 9 -50 0 -23 6 -58 13 -79 10 -27 11 -53 5 -95
-13 -77 -19 -340 -9 -346 5 -3 18 -38 30 -78 13 -40 31 -101 42 -136 22 -73
87 -197 136 -262 19 -25 63 -75 99 -112 35 -37 64 -70 64 -73 0 -11 -28 -4
-40 10 -7 8 -19 15 -26 15 -20 0 -124 74 -171 122 -43 45 -113 164 -113 195 0
10 -7 27 -15 37 -12 15 -15 51 -15 154 0 102 -3 133 -12 130 -27 -9 -38 -255
-13 -302 8 -15 15 -34 15 -42 0 -8 15 -42 33 -76 36 -71 142 -183 203 -213 21
-11 41 -23 42 -27 2 -5 16 -8 32 -8 15 0 33 -7 40 -15 7 -8 29 -15 50 -15 30
0 49 -9 86 -40 27 -23 74 -55 104 -73 30 -18 64 -37 75 -44 36 -21 89 -45 120
-53 31 -8 69 -21 128 -41 81 -29 437 -32 522 -5 22 7 57 18 77 25 29 9 41 9
57 -1 12 -7 21 -16 21 -19 0 -11 69 -48 128 -69 67 -24 111 -25 138 -5 10 8
26 15 35 15 9 0 27 9 40 20 75 61 104 117 97 189 -3 28 -12 59 -20 69 -34 38
-31 58 16 109 88 95 138 159 162 208 14 28 36 69 48 91 13 23 30 64 39 90 69
210 79 261 79 424 1 146 -16 262 -48 337 -8 17 -14 37 -14 45 0 40 -113 266
-160 318 -17 19 -41 49 -53 65 -12 17 -50 58 -84 91 -59 57 -63 64 -63 107 0
64 -21 101 -82 140 -35 22 -111 23 -129 1 -20 -25 -122 -8 -224 37 -96 41
-397 52 -540 19z m475 -70 c41 -11 95 -26 120 -33 48 -13 66 -42 36 -59 -9 -5
-16 -18 -16 -28 0 -15 -11 -23 -45 -31 -52 -13 -75 -39 -75 -84 0 -33 31 -75
55 -75 7 0 20 -2 28 -6 8 -3 28 7 46 21 35 30 42 75 16 112 -17 24 -11 44 29
90 l19 22 59 -32 c32 -18 68 -37 79 -43 65 -36 216 -173 269 -244 19 -25 37
-47 41 -50 17 -13 130 -242 139 -281 5 -24 18 -78 30 -119 39 -144 37 -371 -6
-521 -8 -30 -19 -72 -25 -94 -16 -67 -101 -225 -155 -289 -16 -19 -40 -49 -53
-66 -68 -87 -176 -176 -288 -236 -206 -110 -196 -110 -257 -9 -25 42 -46 80
-46 85 0 5 -9 18 -20 28 -17 16 -19 23 -9 51 30 85 -66 149 -126 85 -23 -25
-28 -26 -89 -20 -36 3 -77 13 -93 21 -15 8 -44 15 -63 15 -19 0 -44 7 -54 15
-11 8 -29 15 -40 15 -12 0 -30 7 -40 15 -11 8 -28 15 -39 15 -10 0 -25 7 -33
15 -9 8 -24 15 -33 15 -10 0 -24 7 -31 15 -7 8 -21 15 -31 15 -11 0 -19 4 -19
8 0 5 -20 18 -44 31 -56 28 -73 69 -80 203 l-5 97 34 27 c29 22 35 33 35 65 0
56 -31 82 -89 76 -52 -6 -71 -26 -71 -74 0 -24 8 -42 28 -61 28 -27 28 -28 26
-137 -1 -60 -2 -112 -3 -115 -2 -8 -183 181 -220 230 -19 25 -39 50 -46 55 -6
6 -22 28 -35 50 -13 22 -27 42 -30 45 -7 7 -41 59 -57 87 -10 20 -8 27 26 60
44 44 84 78 103 87 7 3 27 15 43 25 17 11 49 29 72 41 39 20 44 20 65 6 29
-20 77 -20 106 0 30 21 31 88 0 121 -43 46 -104 24 -139 -51 -10 -21 -25 -33
-49 -39 -19 -5 -37 -12 -40 -15 -3 -4 -21 -15 -41 -25 -19 -10 -53 -34 -74
-53 -21 -18 -42 -34 -45 -34 -4 0 -12 -11 -18 -24 -6 -14 -21 -26 -34 -28 -27
-4 -37 -50 -16 -76 7 -10 21 -32 31 -50 35 -62 43 -77 63 -109 10 -18 22 -33
27 -33 4 0 7 -5 7 -11 0 -28 283 -309 311 -309 11 0 46 -72 54 -110 4 -17 11
-30 16 -30 5 0 9 -8 9 -18 0 -17 9 -32 51 -81 9 -10 9 -22 0 -48 -25 -67 28
-124 99 -108 86 19 69 155 -20 155 -14 0 -31 4 -38 9 -17 10 -82 137 -75 145
11 10 31 7 45 -8 8 -7 40 -26 71 -40 31 -15 59 -31 62 -37 4 -5 17 -9 31 -9
13 0 24 -4 24 -10 0 -5 17 -12 38 -16 20 -4 46 -13 57 -20 11 -8 33 -14 50
-14 17 0 37 -6 44 -12 7 -8 37 -12 81 -11 l70 1 35 -41 c30 -35 43 -42 83 -47
42 -4 47 -8 50 -32 2 -16 8 -28 13 -28 5 0 9 -7 9 -15 0 -8 20 -39 45 -70 29
-35 41 -57 33 -59 -7 -2 -30 -9 -51 -15 -88 -29 -463 -29 -491 -1 -6 6 -21 10
-36 10 -14 1 -36 7 -50 15 -14 8 -33 14 -43 15 -17 0 -114 45 -177 81 -104 60
-222 156 -285 233 -27 34 -60 73 -73 86 -12 13 -39 58 -59 100 -21 41 -42 82
-49 90 -6 8 -14 26 -17 40 -3 14 -11 41 -17 60 -7 19 -18 51 -25 70 -21 57
-37 186 -30 234 5 28 3 46 -4 50 -17 11 -13 66 4 72 12 5 15 25 15 91 0 49 6
98 13 116 8 18 22 59 33 92 25 80 104 235 152 298 75 97 241 245 323 286 24
12 58 31 74 42 39 25 36 23 140 58 83 27 156 45 230 55 72 10 292 -4 365 -24z
m385 -18 c52 -29 85 -64 85 -93 0 -39 -9 -41 -49 -10 -20 16 -56 38 -81 51
-57 28 -54 25 -40 49 13 26 40 27 85 3z m-1485 -260 c0 -5 -29 -42 -64 -83
-87 -102 -185 -297 -198 -397 -7 -50 -23 -18 -29 55 -6 79 9 233 22 233 4 0
10 12 13 28 8 32 64 97 93 106 12 4 24 13 27 21 3 8 16 15 30 15 13 0 37 7 52
15 32 17 54 19 54 7z m1630 -1721 c0 -11 5 -23 10 -26 16 -10 12 -121 -5 -135
-8 -7 -15 -18 -15 -25 0 -18 -46 -47 -105 -67 -44 -15 -55 -15 -110 -2 -33 8
-69 19 -80 24 -11 4 -28 11 -38 14 -31 10 -14 28 59 66 141 74 164 88 210 129
50 45 74 52 74 22z"/>
<path d="M3194 3541 c-25 -11 -54 -53 -54 -80 0 -11 12 -33 26 -50 35 -42 81
-43 121 -1 34 37 84 40 140 10 21 -11 54 -20 74 -20 20 0 42 -7 49 -15 7 -8
25 -15 41 -15 16 0 29 -4 29 -10 0 -5 5 -10 11 -10 16 0 101 -42 117 -57 7 -7
18 -13 23 -13 6 0 17 -6 24 -12 27 -25 48 -41 93 -76 55 -42 103 -93 96 -103
-6 -11 -125 -89 -134 -89 -5 0 -15 -6 -22 -12 -16 -15 -73 -44 -105 -53 -13
-3 -23 -11 -23 -16 0 -5 -10 -9 -23 -9 -13 0 -32 -7 -43 -15 -10 -8 -30 -15
-42 -15 -13 0 -36 -6 -50 -14 -15 -7 -49 -19 -76 -25 -45 -11 -52 -10 -78 9
-35 26 -89 26 -113 0 -20 -22 -23 -93 -5 -115 20 -24 74 -29 109 -11 17 9 31
22 31 29 1 28 21 41 80 48 35 4 65 11 69 17 3 5 24 12 46 15 22 4 41 11 43 17
2 5 14 10 27 10 13 0 30 7 39 15 8 8 23 15 34 15 11 0 25 6 31 14 7 8 23 17
36 20 14 4 25 11 25 16 0 6 6 10 12 10 16 0 120 70 131 87 17 27 46 13 74 -34
15 -26 33 -57 40 -68 7 -11 15 -27 18 -35 3 -8 13 -28 21 -43 7 -16 14 -36 14
-46 0 -9 6 -25 14 -36 7 -11 16 -42 19 -68 4 -27 14 -58 22 -70 8 -12 15 -37
15 -57 0 -28 -6 -38 -30 -52 -26 -15 -30 -23 -30 -60 1 -54 18 -77 64 -85 31
-5 42 -1 67 22 20 20 29 38 29 59 0 37 -6 46 -42 69 -26 16 -28 23 -28 82 0
35 -4 67 -10 70 -5 3 -10 23 -10 44 0 20 -7 46 -15 57 -8 10 -15 29 -15 41 0
12 -7 28 -15 37 -8 8 -15 23 -15 34 0 11 -7 25 -15 32 -8 7 -15 17 -15 22 0 8
-37 65 -50 78 -3 3 -14 18 -24 34 -18 28 -18 29 9 52 16 13 31 24 35 24 4 0
12 12 19 26 9 21 16 25 37 20 14 -4 41 -1 59 5 64 23 70 104 11 140 -42 26
-59 24 -96 -11 -29 -28 -32 -34 -26 -71 6 -38 4 -43 -39 -85 -43 -42 -65 -54
-65 -36 0 17 -153 158 -182 168 -10 3 -18 9 -18 14 0 4 -12 13 -27 19 -16 6
-59 29 -98 51 -38 21 -79 39 -90 40 -11 0 -29 7 -39 15 -11 8 -36 15 -56 15
-20 0 -41 5 -48 12 -7 7 -37 11 -72 10 -37 -1 -63 3 -70 11 -5 6 -18 22 -28
34 -20 26 -58 36 -88 24z"/>
<path d="M1037 853 c-3 -5 -2 -105 2 -223 l6 -215 27 -3 c19 -2 31 3 41 20 13
20 13 38 1 133 -17 139 -16 135 -1 135 11 0 34 -31 109 -148 10 -15 28 -48 40
-75 22 -46 24 -47 63 -45 l40 3 0 210 c0 196 -1 210 -18 213 -11 2 -29 -6 -41
-17 -21 -20 -23 -28 -19 -131 2 -61 0 -110 -4 -110 -16 0 -29 16 -53 63 -14
26 -32 56 -40 65 -9 9 -27 37 -40 61 -19 33 -35 47 -65 57 -48 16 -43 16 -48
7z"/>
<path d="M1976 852 c-8 -13 -12 -430 -4 -437 4 -4 21 -2 38 5 l30 12 2 112 c1
61 1 148 -1 192 -2 51 1 84 8 88 26 17 11 36 -28 36 -22 0 -42 -4 -45 -8z"/>
<path d="M2251 851 c-7 -5 -14 -21 -15 -37 -2 -16 -6 -40 -10 -54 -3 -14 -11
-86 -16 -160 -5 -74 -11 -146 -12 -160 -3 -21 2 -26 25 -28 48 -6 57 10 55
107 -3 98 7 151 28 151 7 0 16 -12 19 -27 6 -33 32 -123 49 -173 10 -29 17
-36 43 -38 37 -4 46 9 62 83 23 114 38 157 55 167 17 9 18 2 15 -129 l-3 -138
36 -3 c27 -2 39 1 46 15 11 23 -3 349 -17 386 -9 24 -16 27 -56 27 -40 0 -45
-3 -51 -27 -4 -16 -10 -32 -14 -38 -4 -5 -10 -26 -13 -45 -27 -146 -72 -207
-88 -119 -4 19 -14 59 -22 89 -9 30 -22 75 -29 100 -7 25 -17 48 -23 52 -14
10 -47 10 -64 -1z"/>
<path d="M3212 847 c-9 -11 -9 -27 0 -68 6 -30 12 -124 12 -209 1 -154 1 -155
24 -158 49 -7 54 10 46 155 -4 87 -3 133 3 133 6 0 22 -17 35 -37 58 -86 103
-160 120 -195 15 -33 21 -38 52 -38 19 0 38 5 42 12 4 6 6 72 4 147 -2 75 -4
165 -4 201 -1 54 -4 65 -19 68 -10 2 -27 -4 -38 -14 -17 -15 -19 -31 -19 -136
0 -82 -3 -119 -11 -116 -6 2 -27 32 -46 67 -19 36 -48 82 -64 104 -16 22 -29
46 -29 53 0 7 -15 17 -32 22 -18 6 -40 13 -49 16 -9 4 -21 1 -27 -7z"/>
<path d="M4645 848 c-3 -7 -4 -105 -2 -218 l2 -205 40 3 c22 2 45 8 52 13 7 7
14 6 18 -1 4 -6 24 -10 44 -9 20 2 49 -1 64 -5 37 -11 62 12 53 47 -6 24 -9
25 -93 26 -48 1 -89 3 -91 6 -3 2 -4 77 -3 165 2 112 -1 166 -10 176 -14 17
-68 19 -74 2z"/>
<path d="M5059 858 c-6 -26 -7 -417 0 -427 7 -11 15 -11 39 -3 18 6 73 9 132
6 l101 -5 -3 33 -3 33 -75 3 c-126 4 -116 -12 -112 162 4 167 -5 200 -53 200
-14 0 -25 -1 -26 -2z"/>
<path d="M6671 851 c-12 -8 -15 -50 -19 -211 -4 -209 0 -230 38 -230 38 0 43
24 47 240 l4 210 -28 0 c-15 0 -34 -4 -42 -9z"/>
<path d="M697 844 c-3 -3 -23 -7 -44 -7 l-38 -2 -8 -118 c-5 -65 -5 -155 0
-200 l8 -82 115 -6 c63 -3 125 -9 136 -13 19 -7 22 -3 26 25 10 66 7 67 -105
66 l-102 -2 0 45 0 45 46 -3 c26 -2 50 1 53 7 4 5 0 27 -9 47 -12 28 -19 35
-32 29 -48 -20 -58 -13 -61 43 l-3 54 103 -4 103 -3 3 36 3 36 -53 6 c-67 9
-133 9 -141 1z"/>
<path d="M2843 841 c-24 -4 -46 -10 -49 -14 -10 -10 -15 -191 -8 -294 5 -74 9
-93 22 -97 10 -3 66 -6 125 -7 59 -1 110 -6 113 -11 3 -4 12 -8 20 -8 12 0 14
11 12 48 l-3 47 -93 -4 c-102 -4 -122 4 -122 48 0 38 16 50 60 44 44 -6 52 3
43 47 -6 31 -8 32 -45 27 -45 -6 -61 13 -56 66 l3 32 95 2 c52 1 101 2 108 2
19 1 15 58 -5 66 -27 11 -172 15 -220 6z"/>
<path d="M253 833 c-45 -6 -113 -75 -113 -115 0 -47 33 -85 91 -102 28 -8 57
-12 64 -9 20 7 53 -14 60 -38 9 -27 -29 -69 -63 -69 -13 0 -43 13 -66 28 -41
28 -43 28 -64 11 -30 -24 -28 -33 19 -70 38 -30 48 -33 115 -33 70 -1 74 0
108 33 32 31 36 40 36 85 -1 35 -7 58 -20 74 -24 29 -79 52 -125 52 -36 0 -85
24 -85 42 0 15 43 47 62 48 10 0 42 -9 72 -21 61 -22 89 -16 99 21 7 28 -25
60 -60 60 -16 0 -44 2 -63 4 -19 2 -49 2 -67 -1z"/>
<path d="M1511 826 c-7 -8 -11 -25 -9 -38 3 -21 8 -23 55 -23 29 -1 56 -4 60
-8 4 -4 7 -78 7 -164 l1 -156 28 -10 c19 -6 32 -6 39 1 6 6 11 78 12 174 l1
163 57 -3 c48 -3 57 -1 62 16 15 47 2 52 -133 52 -69 0 -135 3 -147 6 -12 3
-26 -1 -33 -10z"/>
<path d="M3688 829 c-5 -3 -8 -19 -6 -35 3 -28 5 -29 55 -29 28 0 55 -4 59 -8
4 -3 7 -78 8 -164 l1 -158 43 -3 43 -3 -2 160 c-1 89 1 164 5 168 4 5 31 8 59
8 51 0 52 0 55 33 l3 32 -63 0 c-35 1 -105 2 -156 3 -52 1 -98 -1 -104 -4z"/>
<path d="M4263 833 c-7 -2 -13 -18 -13 -33 0 -16 -6 -44 -14 -62 -17 -41 -35
-93 -46 -133 -14 -48 -39 -119 -50 -137 -6 -10 -10 -27 -10 -38 0 -19 5 -21
42 -18 40 3 43 5 54 44 22 77 28 83 87 82 80 0 87 -4 87 -47 0 -42 11 -55 51
-65 40 -9 53 12 39 63 -6 22 -15 43 -20 46 -6 3 -10 18 -10 33 0 15 -7 36 -15
46 -8 11 -15 31 -15 45 0 14 -7 35 -15 45 -8 11 -15 32 -15 47 0 15 -8 41 -17
58 -16 28 -23 31 -63 30 -25 0 -51 -3 -57 -6z m86 -130 c24 -90 22 -98 -26
-101 -41 -3 -43 -2 -43 24 0 36 32 124 46 124 6 0 16 -21 23 -47z"/>
<path d="M5471 831 c-12 -8 -11 -14 5 -37 10 -15 24 -34 29 -43 6 -9 22 -32
38 -52 15 -20 27 -43 27 -51 0 -8 4 -18 10 -24 5 -5 11 -48 13 -94 3 -96 8
-110 43 -110 27 0 27 0 24 106 -2 70 -1 73 44 138 25 37 46 70 46 73 0 3 13
22 30 43 25 32 28 40 16 50 -8 6 -29 10 -46 8 -28 -3 -36 -11 -66 -68 -44 -85
-59 -84 -101 3 -30 63 -35 67 -65 67 -18 0 -39 -4 -47 -9z"/>
<path d="M6272 828 c-7 -7 -12 -26 -12 -43 0 -17 -7 -40 -15 -51 -8 -10 -15
-32 -15 -47 0 -16 -6 -41 -14 -55 -30 -59 -69 -190 -62 -209 4 -9 17 -13 38
-11 30 3 34 8 53 63 l22 60 69 0 68 0 8 -43 c10 -58 13 -62 60 -62 l41 0 -7
39 c-3 22 -12 52 -20 68 -19 39 -37 92 -44 128 -2 17 -11 39 -18 50 -8 11 -14
30 -14 43 0 13 -7 36 -15 52 -14 27 -21 30 -63 30 -27 0 -53 -5 -60 -12z m91
-133 c27 -87 25 -93 -28 -93 -37 0 -45 3 -45 18 0 33 34 130 45 130 6 0 19
-25 28 -55z"/>
<path d="M5947 512 c-37 -41 -12 -86 45 -80 28 3 33 7 36 31 4 32 -21 67 -48
67 -9 0 -24 -8 -33 -18z"/>
</g>
</svg>
